<svg height="792" width="612" xmlns="http://www.w3.org/2000/svg"><path d="m138.908 95.975v13.642h-18.189v24.631h14.273v14.273h-14.273v27.157h18.947v14.273h-33.22v-93.976zm1.894 0h14.526l6.442 64.672 6.568-64.672h13.516l-11.874 93.976h-17.305zm76.041 0v13.642h-18.189v24.631h14.273v14.273h-14.273v27.157h18.947v14.273h-33.22v-93.976zm18.694 93.976h-14.273v-93.976h23.115c9.474 0 14.273 4.042 14.273 14.526v16.673c0 7.832-3.663 10.863-6.189 12 3.158 1.389 6.189 3.916 6.189 10.231v32.968c0 3.789.758 5.558 1.389 6.947v.631h-14.146c-.632-1.01-1.39-2.652-1.39-7.705v-28.294c0-4.168-.758-5.937-5.305-5.937h-3.663zm0-55.325h3.79c3.916 0 5.179-2.526 5.179-6.695v-13.136c0-4.042-.884-6.063-5.179-6.063h-3.79zm51.03 16.295v39.03h-14.273v-39.157l-12.884-54.819h13.894l6.568 35.115 6.316-35.115h12.884zm73.995 49.322v13.642h-11.999v80.334h-14.147v-80.334h-11.999v-13.642zm17.811 93.976h-14.273v-93.976h14.273v37.641h9.726v-37.641h14.273v93.976h-14.273v-41.304h-9.726zm43.577 0h-14.273v-93.976h14.273zm18.19-93.976 12.252 50.398v-50.398h13.01v93.976h-11.62l-13.642-54.062v54.062h-12.885v-93.976zm43.83 95.239c-8.337 0-13.642-7.453-13.642-17.179v-58.735c0-10.484 4.042-20.21 17.558-20.21h2.778c15.284 0 17.053 9.979 17.053 21.094v9.6h-13.895v-10.61c0-4.168-1.011-6.442-4.548-6.442-3.031 0-4.421 2.273-4.421 6.442v54.946c0 4.421 1.769 6.695 4.674 6.695 3.663 0 5.306-2.526 5.306-6.063v-23.494h-6.442v-14.4h19.957v57.093h-8.084c-.126-.505-1.263-5.179-2.399-9.221-1.011 3.158-5.811 10.484-13.011 10.484zm-345.062 9.029v13.642h-18.189v24.631h14.273v14.273h-14.273v27.157h18.947v14.274h-33.22v-93.977zm27.534 76.292h-10.484l-1.769 17.684h-12.757l11.495-93.977h16.926l12.252 93.977h-13.768zm-8.968-14.021h7.453l-3.79-34.736zm47.113-63.156c11.747 0 16.294 5.179 16.294 16.294v15.41h-13.768v-13.515c0-3.158-.631-5.558-4.042-5.558-3.41 0-4.168 2.147-4.168 6.568v1.769c0 5.305 1.011 8.21 5.811 14.399l9.095 11.747c6.442 8.336 8.463 13.137 8.463 23.747v3.032c0 13.768-5.937 21.978-18.442 21.978h-2.779c-11.368 0-17.431-6.189-17.431-17.81v-18.821h14.147v16.42c0 4.295 1.39 6.568 4.674 6.568 3.41 0 4.673-2.273 4.673-8.084v-2.147c0-6.695-.631-9.095-5.811-15.789l-9.094-11.621c-6.063-7.831-7.832-13.894-7.832-23.241v-3.032c0-12.505 6.316-18.315 17.558-18.315h2.652zm44.21 55.831v39.031h-14.273v-39.158l-12.884-54.819h13.894l6.568 35.115 6.316-35.115h12.884zm217.614 143.298h-14.273v-93.977h14.273zm25.137-94.86c11.747 0 16.294 5.179 16.294 16.294v15.41h-13.768v-13.516c0-3.158-.632-5.558-4.042-5.558s-4.169 2.147-4.169 6.568v1.769c0 5.305 1.011 8.21 5.811 14.399l9.095 11.747c6.442 8.336 8.463 13.137 8.463 23.746v3.032c0 13.768-5.937 21.978-18.441 21.978h-2.779c-11.368 0-17.431-6.188-17.431-17.81v-18.82h14.146v16.42c0 4.295 1.39 6.568 4.674 6.568 3.41 0 4.674-2.273 4.674-8.084v-2.146c0-6.695-.632-9.095-5.811-15.789l-9.095-11.621c-6.062-7.831-7.831-13.895-7.831-23.241v-3.032c0-12.505 6.315-18.314 17.558-18.314zm-370.829 199.127h-14.273v-93.977h14.273v37.641h9.726v-37.641h14.273v93.977h-14.273v-41.305h-9.726zm51.281-17.683h-10.484l-1.769 17.684h-12.757l11.495-93.977h16.926l12.252 93.977h-13.768zm-8.968-14.022h7.453l-3.79-34.735zm41.178 31.705h-14.273v-93.977h23.115c9.474 0 14.273 4.042 14.273 14.526v16.673c0 7.831-3.663 10.862-6.189 12 3.158 1.389 6.189 3.915 6.189 10.23v32.968c0 3.789.758 5.558 1.389 6.947v.632h-14.146c-.632-1.011-1.39-2.652-1.39-7.705v-28.294c0-4.169-.758-5.937-5.305-5.937h-3.663zm0-55.325h3.79c3.916 0 5.179-2.526 5.179-6.694v-13.137c0-4.042-.884-6.062-5.179-6.062h-3.79zm28.041-38.651h21.852c12.252 0 16.042 6.947 16.042 18.062v57.22c0 11.494-4.295 18.694-16.042 18.694h-21.852zm14.274 80.335h3.411c4.294 0 5.558-2.274 5.558-7.326v-52.925c0-5.432-1.39-7.326-4.926-7.326h-4.042v67.577zm99.639 100.225h-10.484l-1.769 17.684h-12.757l11.494-93.977h16.926l12.252 93.977h-13.768zm-8.969-14.021h7.453l-3.79-34.735zm39.79 32.968c-8.337 0-13.642-7.452-13.642-17.179v-58.734c0-10.484 4.042-20.21 17.558-20.21h2.778c15.284 0 17.053 9.979 17.053 21.094v9.6h-13.895v-10.61c0-4.168-1.011-6.441-4.547-6.441-3.032 0-4.422 2.273-4.422 6.441v54.946c0 4.421 1.769 6.694 4.674 6.694 3.663 0 5.306-2.526 5.306-6.063v-23.493h-6.442v-14.4h19.957v57.094h-8.084c-.126-.506-1.263-5.179-2.399-9.221-1.011 3.157-5.811 10.483-13.011 10.483h-.884zm51.283-18.947h-10.483l-1.769 17.684h-12.758l11.495-93.977h16.926l12.252 93.977h-13.769zm-8.968-14.021h7.452l-3.789-34.735zm41.178 31.705h-14.273v-93.977h14.273zm18.189-93.977 12.252 50.398v-50.398h13.01v93.977h-11.62l-13.642-54.062v54.062h-12.885v-93.977z" fill="#ad9077"/><g fill="none" stroke="#999" stroke-miterlimit="10"><path d="m312.259 123.878s206.978 55.134-50.172 141.902c-232.886 78.581-47-147.325 148.999-2.183m31.147 47.375s-51.341 93.999-176.974 44.121m-92.191 20.051s33.527 138.941 261.516 78.944m-255.9 122.61s-26.143 86.205 129.316 99.763"/><path d="m282.37 576.698s266.475-10.771 10.939-88.075c-231.423-70.012-84.087 153.151 148.924 5.032"/></g></svg>